<svg xmlns="http://www.w3.org/2000/svg" width="1280" height="800" viewBox="0 0 1280 800">
  <defs>
    <linearGradient id="bg" x1="0%" y1="0%" x2="100%" y2="100%">
      <stop offset="0%" stop-color="#1e293b" />
      <stop offset="55%" stop-color="#1e1b4b" />
      <stop offset="100%" stop-color="#2e1065" />
    </linearGradient>
    <linearGradient id="accent" x1="0%" y1="0%" x2="100%" y2="0%">
      <stop offset="0%" stop-color="#2563EB" />
      <stop offset="100%" stop-color="#7C3AED" />
    </linearGradient>
    <linearGradient id="bar1" x1="0%" y1="100%" x2="0%" y2="0%">
      <stop offset="0%" stop-color="#2563EB" />
      <stop offset="100%" stop-color="#60a5fa" />
    </linearGradient>
    <linearGradient id="bar2" x1="0%" y1="100%" x2="0%" y2="0%">
      <stop offset="0%" stop-color="#7C3AED" />
      <stop offset="100%" stop-color="#a78bfa" />
    </linearGradient>
    <linearGradient id="bar3" x1="0%" y1="100%" x2="0%" y2="0%">
      <stop offset="0%" stop-color="#06B6D4" />
      <stop offset="100%" stop-color="#67e8f9" />
    </linearGradient>
  </defs>

  <rect width="1280" height="800" fill="url(#bg)" />

  <!-- faint grid -->
  <g opacity="0.06" stroke="#ffffff" stroke-width="1">
    <path d="M0 100H1280M0 200H1280M0 300H1280M0 400H1280M0 500H1280M0 600H1280M0 700H1280" />
    <path d="M107 0V800M214 0V800M321 0V800M428 0V800M535 0V800M642 0V800M749 0V800M856 0V800M963 0V800M1070 0V800M1177 0V800" />
  </g>

  <!-- glow blobs -->
  <circle cx="220" cy="150" r="220" fill="#2563EB" opacity="0.18" />
  <circle cx="1080" cy="650" r="240" fill="#7C3AED" opacity="0.16" />

  <!-- dashboard window -->
  <g>
    <rect x="140" y="150" width="1000" height="520" rx="20" fill="#0f172a" fill-opacity="0.6" stroke="#ffffff" stroke-opacity="0.08" stroke-width="1.5" />

    <!-- window chrome -->
    <circle cx="176" cy="184" r="6" fill="#f87171" />
    <circle cx="198" cy="184" r="6" fill="#fbbf24" />
    <circle cx="220" cy="184" r="6" fill="#4ade80" />
    <rect x="140" y="150" width="1000" height="44" rx="20" fill="#ffffff" fill-opacity="0.04" />

    <!-- sidebar -->
    <rect x="164" y="222" width="140" height="416" rx="12" fill="#ffffff" fill-opacity="0.04" />
    <rect x="184" y="250" width="100" height="10" rx="5" fill="url(#accent)" />
    <rect x="184" y="284" width="90" height="8" rx="4" fill="#ffffff" fill-opacity="0.18" />
    <rect x="184" y="312" width="90" height="8" rx="4" fill="#ffffff" fill-opacity="0.18" />
    <rect x="184" y="340" width="90" height="8" rx="4" fill="#ffffff" fill-opacity="0.18" />
    <rect x="184" y="368" width="90" height="8" rx="4" fill="#ffffff" fill-opacity="0.18" />

    <!-- stat cards -->
    <g>
      <rect x="328" y="222" width="180" height="90" rx="14" fill="#ffffff" fill-opacity="0.05" stroke="#ffffff" stroke-opacity="0.08" />
      <rect x="352" y="248" width="60" height="10" rx="5" fill="#93c5fd" />
      <rect x="352" y="272" width="90" height="16" rx="6" fill="#ffffff" fill-opacity="0.85" />

      <rect x="528" y="222" width="180" height="90" rx="14" fill="#ffffff" fill-opacity="0.05" stroke="#ffffff" stroke-opacity="0.08" />
      <rect x="552" y="248" width="60" height="10" rx="5" fill="#c4b5fd" />
      <rect x="552" y="272" width="90" height="16" rx="6" fill="#ffffff" fill-opacity="0.85" />

      <rect x="728" y="222" width="180" height="90" rx="14" fill="#ffffff" fill-opacity="0.05" stroke="#ffffff" stroke-opacity="0.08" />
      <rect x="752" y="248" width="60" height="10" rx="5" fill="#67e8f9" />
      <rect x="752" y="272" width="90" height="16" rx="6" fill="#ffffff" fill-opacity="0.85" />
    </g>

    <!-- chart card -->
    <rect x="328" y="332" width="580" height="306" rx="14" fill="#ffffff" fill-opacity="0.05" stroke="#ffffff" stroke-opacity="0.08" />
    <rect x="352" y="356" width="140" height="12" rx="6" fill="#ffffff" fill-opacity="0.75" />

    <!-- bar chart -->
    <g>
      <rect x="368" y="500" width="46" height="110" rx="8" fill="url(#bar1)" />
      <rect x="430" y="460" width="46" height="150" rx="8" fill="url(#bar2)" />
      <rect x="492" y="530" width="46" height="80" rx="8" fill="url(#bar3)" />
      <rect x="554" y="440" width="46" height="170" rx="8" fill="url(#bar1)" opacity="0.85" />
      <rect x="616" y="490" width="46" height="120" rx="8" fill="url(#bar2)" opacity="0.85" />
      <rect x="678" y="470" width="46" height="140" rx="8" fill="url(#bar3)" opacity="0.85" />
      <rect x="740" y="510" width="46" height="100" rx="8" fill="url(#bar1)" opacity="0.7" />
      <rect x="802" y="480" width="46" height="130" rx="8" fill="url(#bar2)" opacity="0.7" />
    </g>
    <line x1="352" y1="610" x2="884" y2="610" stroke="#ffffff" stroke-opacity="0.15" stroke-width="1.5" />
  </g>

  <!-- label -->
  <g>
    <rect x="140" y="700" width="360" height="34" rx="17" fill="#ffffff" fill-opacity="0.06" stroke="#ffffff" stroke-opacity="0.1" />
    <circle cx="164" cy="717" r="5" fill="#22C55E" />
    <text x="182" y="722" font-family="Manrope, Arial, sans-serif" font-size="14" font-weight="700" fill="#e2e8f0">Gym Management System</text>
  </g>
  <text x="1000" y="722" text-anchor="end" font-family="Manrope, Arial, sans-serif" font-size="13" font-weight="600" fill="#94a3b8">Preview coming soon</text>
</svg>
